<svg id="Слой_1" data-name="Слой 1" xmlns="http://www.w3.org/2000/svg" viewBox="0 0 117.16 127.35"><defs><style>.cls-1{fill:#3389ee;}</style></defs><path class="cls-1" d="M70.91,89.58a41.44,41.44,0,1,1,41.45-41.44A41.49,41.49,0,0,1,70.91,89.58Zm0-58.27A16.83,16.83,0,1,0,87.74,48.14,16.85,16.85,0,0,0,70.91,31.31Z" transform="translate(-12.34 -6.7)"/><path d="M125.67,126.5H114.05V105.66a3.83,3.83,0,0,0-7.65,0s0,.07,0,.12v24s0,.07,0,.11,0,.1,0,.14a3.71,3.71,0,0,0,3.83,3.57h15.44a3.57,3.57,0,1,0,0-7.13Z" transform="translate(-12.34 -6.7)"/><path d="M40.37,105.6A3.72,3.72,0,0,0,36.54,102H16.16a3.7,3.7,0,0,0-3.82,3.57,3.39,3.39,0,0,0,1.13,2.54,4,4,0,0,0,2.68,1h.14l6.2,0c0,3.46,0,20.81,0,20.86a3.39,3.39,0,0,0,2,3.15,4,4,0,0,0,1,.33l.09,0,.1,0,.3,0,.34,0h.06a3.75,3.75,0,0,0,2.73-1.06,3.14,3.14,0,0,0,.51-.7,3.55,3.55,0,0,0,.54-1.76s0-.49,0-.69l0-20.22,6.17,0h.23a4,4,0,0,0,2.68-1A3.4,3.4,0,0,0,40.37,105.6Z" transform="translate(-12.34 -6.7)"/><path d="M61.18,108c-.38-.93-.71-1.69-1-2.26a8.91,8.91,0,0,0-1-1.69,4.61,4.61,0,0,0-1.33-1.18l-.1-.06-.09-.06-.14-.08-.06,0a5.5,5.5,0,0,0-4.83,0l-.12,0a4.86,4.86,0,0,0-1.66,1.41,10.07,10.07,0,0,0-1.1,2l-8.87,20.72a.83.83,0,0,0-.06.21l-.72,1.7a3.29,3.29,0,0,0,0,2.66,3.68,3.68,0,0,0,2.16,2,3.92,3.92,0,0,0,4.93-2l0-.12L49.57,126h11l2.24,5.24,0,.07,0,.12a4,4,0,0,0,4.93,2,3.68,3.68,0,0,0,2.16-2,3.29,3.29,0,0,0,0-2.66Zm-3.36,11.37H52.37L55.09,113Z" transform="translate(-12.34 -6.7)"/><path d="M99.72,120.12A7.94,7.94,0,0,0,97,117.36a16.55,16.55,0,0,0-3.87-1.72c-1.43-.45-3.06-.86-4.83-1.23-.66-.15-3.13-.73-3.71-.9-1.2-.36-2.64-1.06-2.68-2.38a1.85,1.85,0,0,1,.56-1.38c.55-.55,1.81-1.19,4.65-1.07,4,.16,5.08,2.23,5.49,3l.17.31a4.6,4.6,0,0,0,.61,1,3.92,3.92,0,0,0,7-2.41,1.94,1.94,0,0,0,0-.24h0v-.2A6.89,6.89,0,0,0,99,106.76l0-.06a10.79,10.79,0,0,0-3.81-3.3,17.48,17.48,0,0,0-8.07-1.67,18.79,18.79,0,0,0-7,1.21,10.56,10.56,0,0,0-4.7,3.5,8.61,8.61,0,0,0-1.65,5.14,7.61,7.61,0,0,0,3.66,6.83,15.77,15.77,0,0,0,3.87,1.72c1.44.45,3.06.87,4.83,1.24.67.15,3.13.72,3.71.89,1.2.36,2.64,1.06,2.68,2.38a1.82,1.82,0,0,1-.56,1.38c-.55.55-1.82,1.19-4.65,1.08-4-.16-5.08-2.24-5.49-3l-.16-.3a4.39,4.39,0,0,0-.62-1,3.87,3.87,0,0,0-3.08-1.51A3.93,3.93,0,0,0,74,125.2a1.64,1.64,0,0,0,0,.23h0v.21A6.89,6.89,0,0,0,75.41,129l0,.06a10.77,10.77,0,0,0,3.82,3.31,17.54,17.54,0,0,0,8.06,1.67,18.55,18.55,0,0,0,7-1.22,10.49,10.49,0,0,0,4.7-3.5,8.54,8.54,0,0,0,1.65-5.13A8,8,0,0,0,99.72,120.12Z" transform="translate(-12.34 -6.7)"/></svg>